<mxfile host="app.diagrams.net" agent="Mozilla/5.0 (Macintosh; Intel Mac OS X 10_15_7) AppleWebKit/537.36 (KHTML, like Gecko) Chrome/131.0.0.0 Safari/537.36" version="24.7.17">
  <diagram name="Page-1" id="6pfTi9JxywN9Y2Y83B96">
    <mxGraphModel dx="2099" dy="816" grid="1" gridSize="10" guides="1" tooltips="1" connect="1" arrows="1" fold="1" page="1" pageScale="1" pageWidth="827" pageHeight="1169" math="0" shadow="0">
      <root>
        <mxCell id="0" />
        <mxCell id="1" parent="0" />
        <mxCell id="3" value="" style="whiteSpace=wrap;strokeWidth=2;fillColor=#333333;" parent="1" vertex="1">
          <mxGeometry x="600" y="140" width="200" height="240" as="geometry" />
        </mxCell>
        <mxCell id="6" value="" style="whiteSpace=wrap;strokeWidth=2;fillColor=#333333;" parent="1" vertex="1">
          <mxGeometry x="40" y="140" width="480" height="240" as="geometry" />
        </mxCell>
        <mxCell id="zzU0FpkwpjBy34qVgAPe-39" value="&lt;font style=&quot;font-size: 24px;&quot;&gt;Maintaining Scheduling System&lt;/font&gt;" style="text;html=1;align=center;verticalAlign=middle;whiteSpace=wrap;rounded=0;fontColor=#FFFFFF;" vertex="1" parent="1">
          <mxGeometry x="40" y="150" width="480" height="40" as="geometry" />
        </mxCell>
        <mxCell id="zzU0FpkwpjBy34qVgAPe-40" value="&lt;font color=&quot;#ffffff&quot;&gt;Manage Machines&lt;/font&gt;" style="rounded=1;whiteSpace=wrap;html=1;fillColor=#4D4D4D;" vertex="1" parent="1">
          <mxGeometry x="60" y="200" width="140" height="20" as="geometry" />
        </mxCell>
        <mxCell id="zzU0FpkwpjBy34qVgAPe-43" value="&lt;font color=&quot;#ffffff&quot;&gt;Manage Tasks&lt;/font&gt;" style="rounded=1;whiteSpace=wrap;html=1;fillColor=#4D4D4D;" vertex="1" parent="1">
          <mxGeometry x="211" y="200" width="140" height="20" as="geometry" />
        </mxCell>
        <mxCell id="zzU0FpkwpjBy34qVgAPe-44" value="&lt;font color=&quot;#ffffff&quot;&gt;View Maintenance History&lt;/font&gt;" style="rounded=1;whiteSpace=wrap;html=1;fillColor=#4D4D4D;" vertex="1" parent="1">
          <mxGeometry x="360" y="200" width="145" height="20" as="geometry" />
        </mxCell>
        <mxCell id="zzU0FpkwpjBy34qVgAPe-45" value="" style="endArrow=classic;html=1;rounded=0;" edge="1" parent="1" source="zzU0FpkwpjBy34qVgAPe-39">
          <mxGeometry width="50" height="50" relative="1" as="geometry">
            <mxPoint x="230" y="130" as="sourcePoint" />
            <mxPoint x="280" y="120" as="targetPoint" />
          </mxGeometry>
        </mxCell>
        <mxCell id="zzU0FpkwpjBy34qVgAPe-46" value="Font = Arial&lt;div&gt;Fontsize = 24&lt;/div&gt;" style="text;html=1;align=left;verticalAlign=middle;whiteSpace=wrap;rounded=0;" vertex="1" parent="1">
          <mxGeometry x="240" y="80" width="80" height="40" as="geometry" />
        </mxCell>
        <mxCell id="zzU0FpkwpjBy34qVgAPe-47" value="&lt;font style=&quot;font-size: 24px;&quot;&gt;Login&lt;/font&gt;" style="text;html=1;align=center;verticalAlign=middle;whiteSpace=wrap;rounded=0;fontColor=#FFFFFF;" vertex="1" parent="1">
          <mxGeometry x="600" y="150" width="200" height="40" as="geometry" />
        </mxCell>
        <mxCell id="zzU0FpkwpjBy34qVgAPe-49" value="" style="rounded=1;whiteSpace=wrap;html=1;fillColor=#1A1A1A;" vertex="1" parent="1">
          <mxGeometry x="610" y="220" width="180" height="20" as="geometry" />
        </mxCell>
        <mxCell id="zzU0FpkwpjBy34qVgAPe-50" value="&lt;div style=&quot;&quot;&gt;Password:&lt;/div&gt;" style="text;html=1;align=center;verticalAlign=middle;whiteSpace=wrap;rounded=0;fontColor=#FFFFFF;" vertex="1" parent="1">
          <mxGeometry x="600" y="260" width="200" height="20" as="geometry" />
        </mxCell>
        <mxCell id="zzU0FpkwpjBy34qVgAPe-51" value="" style="rounded=1;whiteSpace=wrap;html=1;fillColor=#1A1A1A;" vertex="1" parent="1">
          <mxGeometry x="610" y="280" width="180" height="20" as="geometry" />
        </mxCell>
        <mxCell id="zzU0FpkwpjBy34qVgAPe-52" value="&lt;div style=&quot;&quot;&gt;Username:&lt;/div&gt;" style="text;html=1;align=center;verticalAlign=middle;whiteSpace=wrap;rounded=0;fontColor=#FFFFFF;" vertex="1" parent="1">
          <mxGeometry x="600" y="200" width="200" height="20" as="geometry" />
        </mxCell>
        <mxCell id="zzU0FpkwpjBy34qVgAPe-53" value="Login" style="rounded=1;whiteSpace=wrap;html=1;" vertex="1" parent="1">
          <mxGeometry x="665" y="310" width="70" height="20" as="geometry" />
        </mxCell>
        <mxCell id="zzU0FpkwpjBy34qVgAPe-54" value="Close" style="rounded=1;whiteSpace=wrap;html=1;" vertex="1" parent="1">
          <mxGeometry x="665" y="340" width="70" height="20" as="geometry" />
        </mxCell>
        <mxCell id="zzU0FpkwpjBy34qVgAPe-55" value="" style="endArrow=none;html=1;rounded=0;" edge="1" parent="1">
          <mxGeometry width="50" height="50" relative="1" as="geometry">
            <mxPoint x="40" y="400" as="sourcePoint" />
            <mxPoint x="240" y="400" as="targetPoint" />
          </mxGeometry>
        </mxCell>
        <mxCell id="zzU0FpkwpjBy34qVgAPe-56" value="" style="endArrow=none;html=1;rounded=0;" edge="1" parent="1">
          <mxGeometry width="50" height="50" relative="1" as="geometry">
            <mxPoint x="320" y="400" as="sourcePoint" />
            <mxPoint x="520" y="400" as="targetPoint" />
          </mxGeometry>
        </mxCell>
        <mxCell id="zzU0FpkwpjBy34qVgAPe-57" value="800 px" style="text;html=1;align=center;verticalAlign=middle;whiteSpace=wrap;rounded=0;" vertex="1" parent="1">
          <mxGeometry x="240" y="380" width="80" height="40" as="geometry" />
        </mxCell>
        <mxCell id="zzU0FpkwpjBy34qVgAPe-58" value="" style="endArrow=none;html=1;rounded=0;entryX=0;entryY=0.5;entryDx=0;entryDy=0;" edge="1" parent="1" target="zzU0FpkwpjBy34qVgAPe-60">
          <mxGeometry width="50" height="50" relative="1" as="geometry">
            <mxPoint x="20" y="380" as="sourcePoint" />
            <mxPoint x="230" y="470" as="targetPoint" />
            <Array as="points" />
          </mxGeometry>
        </mxCell>
        <mxCell id="zzU0FpkwpjBy34qVgAPe-60" value="600 px" style="text;html=1;align=center;verticalAlign=middle;whiteSpace=wrap;rounded=0;rotation=-90;" vertex="1" parent="1">
          <mxGeometry x="-20" y="240" width="80" height="40" as="geometry" />
        </mxCell>
        <mxCell id="zzU0FpkwpjBy34qVgAPe-61" value="" style="endArrow=none;html=1;rounded=0;entryX=0;entryY=0.5;entryDx=0;entryDy=0;" edge="1" parent="1">
          <mxGeometry width="50" height="50" relative="1" as="geometry">
            <mxPoint x="19.659999999999997" y="220" as="sourcePoint" />
            <mxPoint x="19.659999999999997" y="140" as="targetPoint" />
          </mxGeometry>
        </mxCell>
        <mxCell id="zzU0FpkwpjBy34qVgAPe-62" value="" style="endArrow=none;html=1;rounded=0;entryX=0;entryY=0.5;entryDx=0;entryDy=0;" edge="1" parent="1" target="zzU0FpkwpjBy34qVgAPe-63">
          <mxGeometry width="50" height="50" relative="1" as="geometry">
            <mxPoint x="580" y="380" as="sourcePoint" />
            <mxPoint x="790" y="470" as="targetPoint" />
            <Array as="points" />
          </mxGeometry>
        </mxCell>
        <mxCell id="zzU0FpkwpjBy34qVgAPe-63" value="400 px" style="text;html=1;align=center;verticalAlign=middle;whiteSpace=wrap;rounded=0;rotation=-90;" vertex="1" parent="1">
          <mxGeometry x="540" y="240" width="80" height="40" as="geometry" />
        </mxCell>
        <mxCell id="zzU0FpkwpjBy34qVgAPe-64" value="" style="endArrow=none;html=1;rounded=0;entryX=0;entryY=0.5;entryDx=0;entryDy=0;" edge="1" parent="1">
          <mxGeometry width="50" height="50" relative="1" as="geometry">
            <mxPoint x="579.66" y="220" as="sourcePoint" />
            <mxPoint x="579.66" y="140" as="targetPoint" />
          </mxGeometry>
        </mxCell>
        <mxCell id="zzU0FpkwpjBy34qVgAPe-65" value="" style="endArrow=none;html=1;rounded=0;" edge="1" parent="1">
          <mxGeometry width="50" height="50" relative="1" as="geometry">
            <mxPoint x="600" y="400" as="sourcePoint" />
            <mxPoint x="660" y="400" as="targetPoint" />
          </mxGeometry>
        </mxCell>
        <mxCell id="zzU0FpkwpjBy34qVgAPe-66" value="" style="endArrow=none;html=1;rounded=0;" edge="1" parent="1">
          <mxGeometry width="50" height="50" relative="1" as="geometry">
            <mxPoint x="740" y="400" as="sourcePoint" />
            <mxPoint x="800" y="400" as="targetPoint" />
          </mxGeometry>
        </mxCell>
        <mxCell id="zzU0FpkwpjBy34qVgAPe-67" value="300 px" style="text;html=1;align=center;verticalAlign=middle;whiteSpace=wrap;rounded=0;" vertex="1" parent="1">
          <mxGeometry x="660" y="380" width="80" height="40" as="geometry" />
        </mxCell>
        <mxCell id="zzU0FpkwpjBy34qVgAPe-68" value="" style="whiteSpace=wrap;strokeWidth=2;fillColor=#333333;" vertex="1" parent="1">
          <mxGeometry x="40" y="460" width="360" height="240" as="geometry" />
        </mxCell>
        <mxCell id="zzU0FpkwpjBy34qVgAPe-70" value="" style="rounded=1;whiteSpace=wrap;html=1;fillColor=#1A1A1A;" vertex="1" parent="1">
          <mxGeometry x="170" y="490" width="180" height="20" as="geometry" />
        </mxCell>
        <mxCell id="zzU0FpkwpjBy34qVgAPe-73" value="&lt;div style=&quot;&quot;&gt;Machine Name:&lt;/div&gt;" style="text;html=1;align=left;verticalAlign=middle;whiteSpace=wrap;rounded=0;fontColor=#FFFFFF;" vertex="1" parent="1">
          <mxGeometry x="60" y="490" width="90" height="20" as="geometry" />
        </mxCell>
        <mxCell id="zzU0FpkwpjBy34qVgAPe-76" value="" style="endArrow=none;html=1;rounded=0;entryX=0;entryY=0.5;entryDx=0;entryDy=0;" edge="1" parent="1" target="zzU0FpkwpjBy34qVgAPe-77">
          <mxGeometry width="50" height="50" relative="1" as="geometry">
            <mxPoint x="20" y="700" as="sourcePoint" />
            <mxPoint x="230" y="790" as="targetPoint" />
            <Array as="points" />
          </mxGeometry>
        </mxCell>
        <mxCell id="zzU0FpkwpjBy34qVgAPe-77" value="400 px" style="text;html=1;align=center;verticalAlign=middle;whiteSpace=wrap;rounded=0;rotation=-90;" vertex="1" parent="1">
          <mxGeometry x="-20" y="560" width="80" height="40" as="geometry" />
        </mxCell>
        <mxCell id="zzU0FpkwpjBy34qVgAPe-78" value="" style="endArrow=none;html=1;rounded=0;entryX=0;entryY=0.5;entryDx=0;entryDy=0;" edge="1" parent="1">
          <mxGeometry width="50" height="50" relative="1" as="geometry">
            <mxPoint x="19.659999999999968" y="540" as="sourcePoint" />
            <mxPoint x="19.659999999999968" y="460" as="targetPoint" />
          </mxGeometry>
        </mxCell>
        <mxCell id="zzU0FpkwpjBy34qVgAPe-79" value="" style="endArrow=none;html=1;rounded=0;entryX=0;entryY=0.5;entryDx=0;entryDy=0;" edge="1" parent="1" target="zzU0FpkwpjBy34qVgAPe-81">
          <mxGeometry width="50" height="50" relative="1" as="geometry">
            <mxPoint x="40" y="720" as="sourcePoint" />
            <mxPoint x="160" y="720" as="targetPoint" />
          </mxGeometry>
        </mxCell>
        <mxCell id="zzU0FpkwpjBy34qVgAPe-80" value="" style="endArrow=none;html=1;rounded=0;entryX=1;entryY=0.5;entryDx=0;entryDy=0;" edge="1" parent="1" target="zzU0FpkwpjBy34qVgAPe-81">
          <mxGeometry width="50" height="50" relative="1" as="geometry">
            <mxPoint x="280" y="720" as="sourcePoint" />
            <mxPoint x="280" y="720" as="targetPoint" />
            <Array as="points">
              <mxPoint x="400" y="720" />
            </Array>
          </mxGeometry>
        </mxCell>
        <mxCell id="zzU0FpkwpjBy34qVgAPe-81" value="600 px" style="text;html=1;align=center;verticalAlign=middle;whiteSpace=wrap;rounded=0;" vertex="1" parent="1">
          <mxGeometry x="180" y="700" width="80" height="40" as="geometry" />
        </mxCell>
        <mxCell id="zzU0FpkwpjBy34qVgAPe-82" value="" style="rounded=1;whiteSpace=wrap;html=1;fillColor=#1A1A1A;" vertex="1" parent="1">
          <mxGeometry x="170" y="520" width="180" height="20" as="geometry" />
        </mxCell>
        <mxCell id="zzU0FpkwpjBy34qVgAPe-83" value="&lt;div style=&quot;&quot;&gt;Location:&lt;/div&gt;" style="text;html=1;align=left;verticalAlign=middle;whiteSpace=wrap;rounded=0;fontColor=#FFFFFF;" vertex="1" parent="1">
          <mxGeometry x="60" y="520" width="90" height="20" as="geometry" />
        </mxCell>
        <mxCell id="zzU0FpkwpjBy34qVgAPe-84" value="" style="rounded=1;whiteSpace=wrap;html=1;fillColor=#1A1A1A;" vertex="1" parent="1">
          <mxGeometry x="170" y="550" width="180" height="20" as="geometry" />
        </mxCell>
        <mxCell id="zzU0FpkwpjBy34qVgAPe-85" value="&lt;div style=&quot;&quot;&gt;Type:&lt;/div&gt;" style="text;html=1;align=left;verticalAlign=middle;whiteSpace=wrap;rounded=0;fontColor=#FFFFFF;" vertex="1" parent="1">
          <mxGeometry x="60" y="550" width="90" height="20" as="geometry" />
        </mxCell>
        <mxCell id="zzU0FpkwpjBy34qVgAPe-86" value="" style="rounded=1;whiteSpace=wrap;html=1;fillColor=#1A1A1A;" vertex="1" parent="1">
          <mxGeometry x="170" y="580" width="180" height="20" as="geometry" />
        </mxCell>
        <mxCell id="zzU0FpkwpjBy34qVgAPe-87" value="&lt;div style=&quot;&quot;&gt;Status:&lt;/div&gt;" style="text;html=1;align=left;verticalAlign=middle;whiteSpace=wrap;rounded=0;fontColor=#FFFFFF;" vertex="1" parent="1">
          <mxGeometry x="60" y="580" width="90" height="20" as="geometry" />
        </mxCell>
        <mxCell id="zzU0FpkwpjBy34qVgAPe-88" value="" style="triangle;whiteSpace=wrap;html=1;rotation=90;fillColor=#2170a1;" vertex="1" parent="1">
          <mxGeometry x="330" y="580" width="10" height="20" as="geometry" />
        </mxCell>
        <mxCell id="zzU0FpkwpjBy34qVgAPe-92" value="&lt;font color=&quot;#ffffff&quot;&gt;Add Machine&lt;/font&gt;" style="rounded=1;whiteSpace=wrap;html=1;fillColor=#4D4D4D;" vertex="1" parent="1">
          <mxGeometry x="51" y="620" width="79" height="20" as="geometry" />
        </mxCell>
        <mxCell id="zzU0FpkwpjBy34qVgAPe-93" value="&lt;font color=&quot;#ffffff&quot;&gt;Close&lt;/font&gt;" style="rounded=1;whiteSpace=wrap;html=1;fillColor=#4D4D4D;" vertex="1" parent="1">
          <mxGeometry x="150" y="620" width="70" height="20" as="geometry" />
        </mxCell>
        <mxCell id="zzU0FpkwpjBy34qVgAPe-94" value="" style="endArrow=classic;html=1;rounded=0;" edge="1" parent="1">
          <mxGeometry width="50" height="50" relative="1" as="geometry">
            <mxPoint x="700" y="150" as="sourcePoint" />
            <mxPoint x="700" y="120" as="targetPoint" />
          </mxGeometry>
        </mxCell>
        <mxCell id="zzU0FpkwpjBy34qVgAPe-95" value="Font = Arial&lt;div&gt;Fontsize = 24&lt;/div&gt;" style="text;html=1;align=left;verticalAlign=middle;whiteSpace=wrap;rounded=0;" vertex="1" parent="1">
          <mxGeometry x="660" y="80" width="80" height="40" as="geometry" />
        </mxCell>
        <mxCell id="zzU0FpkwpjBy34qVgAPe-96" value="&lt;h1 style=&quot;margin-top: 0px;&quot;&gt;&lt;font style=&quot;font-size: 30px;&quot;&gt;User Interface Design Architecture&lt;/font&gt;&lt;/h1&gt;" style="text;html=1;whiteSpace=wrap;overflow=hidden;rounded=0;align=center;" vertex="1" parent="1">
          <mxGeometry x="10" y="40" width="810" height="40" as="geometry" />
        </mxCell>
        <mxCell id="zzU0FpkwpjBy34qVgAPe-98" value="&lt;font color=&quot;#ff0000&quot;&gt;main_window.py&lt;/font&gt;" style="text;html=1;align=left;verticalAlign=middle;whiteSpace=wrap;rounded=0;" vertex="1" parent="1">
          <mxGeometry x="40" y="110" width="80" height="40" as="geometry" />
        </mxCell>
        <mxCell id="zzU0FpkwpjBy34qVgAPe-99" value="&lt;font color=&quot;#ff0000&quot;&gt;login.py&lt;/font&gt;" style="text;html=1;align=left;verticalAlign=middle;whiteSpace=wrap;rounded=0;" vertex="1" parent="1">
          <mxGeometry x="600" y="110" width="80" height="40" as="geometry" />
        </mxCell>
        <mxCell id="zzU0FpkwpjBy34qVgAPe-100" value="&lt;font color=&quot;#ff0000&quot;&gt;machine_management.py&lt;/font&gt;" style="text;html=1;align=left;verticalAlign=middle;whiteSpace=wrap;rounded=0;" vertex="1" parent="1">
          <mxGeometry x="40" y="430" width="160" height="40" as="geometry" />
        </mxCell>
        <mxCell id="zzU0FpkwpjBy34qVgAPe-101" value="" style="whiteSpace=wrap;strokeWidth=2;fillColor=#333333;" vertex="1" parent="1">
          <mxGeometry x="460" y="460" width="360" height="320" as="geometry" />
        </mxCell>
        <mxCell id="zzU0FpkwpjBy34qVgAPe-102" value="" style="rounded=1;whiteSpace=wrap;html=1;fillColor=#1A1A1A;" vertex="1" parent="1">
          <mxGeometry x="590" y="490" width="180" height="20" as="geometry" />
        </mxCell>
        <mxCell id="zzU0FpkwpjBy34qVgAPe-103" value="&lt;div style=&quot;&quot;&gt;Machine:&lt;/div&gt;" style="text;html=1;align=left;verticalAlign=middle;whiteSpace=wrap;rounded=0;fontColor=#FFFFFF;" vertex="1" parent="1">
          <mxGeometry x="480" y="490" width="90" height="20" as="geometry" />
        </mxCell>
        <mxCell id="zzU0FpkwpjBy34qVgAPe-104" value="" style="endArrow=none;html=1;rounded=0;entryX=0;entryY=0.5;entryDx=0;entryDy=0;" edge="1" parent="1" target="zzU0FpkwpjBy34qVgAPe-118">
          <mxGeometry width="50" height="50" relative="1" as="geometry">
            <mxPoint x="439.58" y="780" as="sourcePoint" />
            <mxPoint x="439.58" y="700" as="targetPoint" />
            <Array as="points" />
          </mxGeometry>
        </mxCell>
        <mxCell id="zzU0FpkwpjBy34qVgAPe-105" value="" style="endArrow=none;html=1;rounded=0;entryX=0;entryY=0.5;entryDx=0;entryDy=0;exitX=1;exitY=0.5;exitDx=0;exitDy=0;" edge="1" parent="1" source="zzU0FpkwpjBy34qVgAPe-118">
          <mxGeometry width="50" height="50" relative="1" as="geometry">
            <mxPoint x="439.65999999999997" y="540" as="sourcePoint" />
            <mxPoint x="439.65999999999997" y="460" as="targetPoint" />
          </mxGeometry>
        </mxCell>
        <mxCell id="zzU0FpkwpjBy34qVgAPe-106" value="" style="endArrow=none;html=1;rounded=0;entryX=0;entryY=0.5;entryDx=0;entryDy=0;" edge="1" parent="1">
          <mxGeometry width="50" height="50" relative="1" as="geometry">
            <mxPoint x="460" y="800" as="sourcePoint" />
            <mxPoint x="600" y="800" as="targetPoint" />
          </mxGeometry>
        </mxCell>
        <mxCell id="zzU0FpkwpjBy34qVgAPe-107" value="" style="endArrow=none;html=1;rounded=0;entryX=1;entryY=0.5;entryDx=0;entryDy=0;" edge="1" parent="1">
          <mxGeometry width="50" height="50" relative="1" as="geometry">
            <mxPoint x="700" y="800" as="sourcePoint" />
            <mxPoint x="680" y="800" as="targetPoint" />
            <Array as="points">
              <mxPoint x="820" y="800" />
            </Array>
          </mxGeometry>
        </mxCell>
        <mxCell id="zzU0FpkwpjBy34qVgAPe-108" value="" style="rounded=1;whiteSpace=wrap;html=1;fillColor=#1A1A1A;" vertex="1" parent="1">
          <mxGeometry x="590" y="520" width="180" height="20" as="geometry" />
        </mxCell>
        <mxCell id="zzU0FpkwpjBy34qVgAPe-109" value="&lt;div style=&quot;&quot;&gt;Maintenance Type:&lt;/div&gt;" style="text;html=1;align=left;verticalAlign=middle;whiteSpace=wrap;rounded=0;fontColor=#FFFFFF;" vertex="1" parent="1">
          <mxGeometry x="480" y="520" width="110" height="20" as="geometry" />
        </mxCell>
        <mxCell id="zzU0FpkwpjBy34qVgAPe-110" value="" style="rounded=1;whiteSpace=wrap;html=1;fillColor=#1A1A1A;" vertex="1" parent="1">
          <mxGeometry x="590" y="550" width="180" height="20" as="geometry" />
        </mxCell>
        <mxCell id="zzU0FpkwpjBy34qVgAPe-111" value="&lt;div style=&quot;&quot;&gt;Date Scheduled:&lt;/div&gt;" style="text;html=1;align=left;verticalAlign=middle;whiteSpace=wrap;rounded=0;fontColor=#FFFFFF;" vertex="1" parent="1">
          <mxGeometry x="480" y="550" width="100" height="20" as="geometry" />
        </mxCell>
        <mxCell id="zzU0FpkwpjBy34qVgAPe-112" value="" style="rounded=1;whiteSpace=wrap;html=1;fillColor=#1A1A1A;" vertex="1" parent="1">
          <mxGeometry x="590" y="580" width="180" height="20" as="geometry" />
        </mxCell>
        <mxCell id="zzU0FpkwpjBy34qVgAPe-113" value="&lt;div style=&quot;&quot;&gt;Technician Name:&lt;/div&gt;" style="text;html=1;align=left;verticalAlign=middle;whiteSpace=wrap;rounded=0;fontColor=#FFFFFF;" vertex="1" parent="1">
          <mxGeometry x="480" y="580" width="100" height="20" as="geometry" />
        </mxCell>
        <mxCell id="zzU0FpkwpjBy34qVgAPe-115" value="&lt;font color=&quot;#ffffff&quot;&gt;Add Task&lt;/font&gt;" style="rounded=1;whiteSpace=wrap;html=1;fillColor=#4D4D4D;" vertex="1" parent="1">
          <mxGeometry x="520" y="640" width="79" height="20" as="geometry" />
        </mxCell>
        <mxCell id="zzU0FpkwpjBy34qVgAPe-116" value="&lt;font color=&quot;#ffffff&quot;&gt;Clear Form&lt;/font&gt;" style="rounded=1;whiteSpace=wrap;html=1;fillColor=#4D4D4D;" vertex="1" parent="1">
          <mxGeometry x="619" y="640" width="70" height="20" as="geometry" />
        </mxCell>
        <mxCell id="zzU0FpkwpjBy34qVgAPe-117" value="&lt;font color=&quot;#ff0000&quot;&gt;task_management.py&lt;/font&gt;" style="text;html=1;align=left;verticalAlign=middle;whiteSpace=wrap;rounded=0;" vertex="1" parent="1">
          <mxGeometry x="460" y="430" width="160" height="40" as="geometry" />
        </mxCell>
        <mxCell id="zzU0FpkwpjBy34qVgAPe-118" value="500 px" style="text;html=1;align=center;verticalAlign=middle;whiteSpace=wrap;rounded=0;rotation=-90;" vertex="1" parent="1">
          <mxGeometry x="400" y="610" width="80" height="40" as="geometry" />
        </mxCell>
        <mxCell id="zzU0FpkwpjBy34qVgAPe-119" value="800 px" style="text;html=1;align=center;verticalAlign=middle;whiteSpace=wrap;rounded=0;rotation=0;" vertex="1" parent="1">
          <mxGeometry x="600" y="780" width="80" height="40" as="geometry" />
        </mxCell>
        <mxCell id="zzU0FpkwpjBy34qVgAPe-120" value="&lt;font color=&quot;#ffffff&quot;&gt;Close&lt;/font&gt;" style="rounded=1;whiteSpace=wrap;html=1;fillColor=#4D4D4D;" vertex="1" parent="1">
          <mxGeometry x="711" y="640" width="79" height="20" as="geometry" />
        </mxCell>
        <mxCell id="zzU0FpkwpjBy34qVgAPe-239" value="" style="triangle;whiteSpace=wrap;html=1;rotation=90;fillColor=#2170a1;" vertex="1" parent="1">
          <mxGeometry x="750" y="490" width="10" height="20" as="geometry" />
        </mxCell>
        <mxCell id="zzU0FpkwpjBy34qVgAPe-240" value="" style="triangle;whiteSpace=wrap;html=1;rotation=90;fillColor=#2170a1;" vertex="1" parent="1">
          <mxGeometry x="750" y="520" width="10" height="20" as="geometry" />
        </mxCell>
        <mxCell id="zzU0FpkwpjBy34qVgAPe-241" value="" style="rounded=1;whiteSpace=wrap;html=1;fillColor=#1A1A1A;" vertex="1" parent="1">
          <mxGeometry x="590" y="610" width="180" height="20" as="geometry" />
        </mxCell>
        <mxCell id="zzU0FpkwpjBy34qVgAPe-242" value="&lt;div style=&quot;&quot;&gt;Status&lt;/div&gt;" style="text;html=1;align=left;verticalAlign=middle;whiteSpace=wrap;rounded=0;fontColor=#FFFFFF;" vertex="1" parent="1">
          <mxGeometry x="480" y="610" width="100" height="20" as="geometry" />
        </mxCell>
        <mxCell id="zzU0FpkwpjBy34qVgAPe-243" value="" style="triangle;whiteSpace=wrap;html=1;rotation=90;fillColor=#2170a1;" vertex="1" parent="1">
          <mxGeometry x="750" y="610" width="10" height="20" as="geometry" />
        </mxCell>
        <mxCell id="zzU0FpkwpjBy34qVgAPe-246" value="" style="whiteSpace=wrap;strokeWidth=2;fillColor=#1A1A1A;" vertex="1" parent="1">
          <mxGeometry x="460" y="670" width="360" height="110" as="geometry" />
        </mxCell>
        <mxCell id="zzU0FpkwpjBy34qVgAPe-247" value="" style="endArrow=none;html=1;rounded=0;entryX=1;entryY=0.5;entryDx=0;entryDy=0;strokeColor=#4D4D4D;" edge="1" parent="1">
          <mxGeometry width="50" height="50" relative="1" as="geometry">
            <mxPoint x="479" y="690" as="sourcePoint" />
            <mxPoint x="459" y="690" as="targetPoint" />
            <Array as="points">
              <mxPoint x="820" y="690" />
            </Array>
          </mxGeometry>
        </mxCell>
        <mxCell id="zzU0FpkwpjBy34qVgAPe-248" value="&lt;div style=&quot;&quot;&gt;&lt;font style=&quot;font-size: 10px;&quot;&gt;Task ID&amp;nbsp; &amp;nbsp;Machine&amp;nbsp; &amp;nbsp;Maintenance Type&amp;nbsp; &amp;nbsp;Date Scheduled&amp;nbsp; &amp;nbsp;Technician&amp;nbsp; &amp;nbsp;Status&lt;/font&gt;&lt;/div&gt;" style="text;html=1;align=left;verticalAlign=middle;whiteSpace=wrap;rounded=0;fontColor=#FFFFFF;" vertex="1" parent="1">
          <mxGeometry x="460" y="670" width="410" height="20" as="geometry" />
        </mxCell>
        <mxCell id="zzU0FpkwpjBy34qVgAPe-250" value="" style="endArrow=none;html=1;rounded=0;entryX=0.109;entryY=0.996;entryDx=0;entryDy=0;exitX=0.096;exitY=0.04;exitDx=0;exitDy=0;exitPerimeter=0;entryPerimeter=0;strokeColor=#4D4D4D;" edge="1" parent="1" source="zzU0FpkwpjBy34qVgAPe-248" target="zzU0FpkwpjBy34qVgAPe-246">
          <mxGeometry width="50" height="50" relative="1" as="geometry">
            <mxPoint x="470" y="810" as="sourcePoint" />
            <mxPoint x="610" y="810" as="targetPoint" />
          </mxGeometry>
        </mxCell>
        <mxCell id="zzU0FpkwpjBy34qVgAPe-251" value="" style="endArrow=none;html=1;rounded=0;entryX=0.109;entryY=0.996;entryDx=0;entryDy=0;exitX=0.096;exitY=0.04;exitDx=0;exitDy=0;exitPerimeter=0;entryPerimeter=0;strokeColor=#4D4D4D;" edge="1" parent="1">
          <mxGeometry width="50" height="50" relative="1" as="geometry">
            <mxPoint x="545" y="671" as="sourcePoint" />
            <mxPoint x="545" y="780" as="targetPoint" />
          </mxGeometry>
        </mxCell>
        <mxCell id="zzU0FpkwpjBy34qVgAPe-252" value="" style="endArrow=none;html=1;rounded=0;entryX=0.109;entryY=0.996;entryDx=0;entryDy=0;exitX=0.096;exitY=0.04;exitDx=0;exitDy=0;exitPerimeter=0;entryPerimeter=0;strokeColor=#4D4D4D;" edge="1" parent="1">
          <mxGeometry width="50" height="50" relative="1" as="geometry">
            <mxPoint x="635" y="671" as="sourcePoint" />
            <mxPoint x="635" y="780" as="targetPoint" />
          </mxGeometry>
        </mxCell>
        <mxCell id="zzU0FpkwpjBy34qVgAPe-253" value="" style="endArrow=none;html=1;rounded=0;entryX=0.109;entryY=0.996;entryDx=0;entryDy=0;exitX=0.096;exitY=0.04;exitDx=0;exitDy=0;exitPerimeter=0;entryPerimeter=0;strokeColor=#4D4D4D;" edge="1" parent="1">
          <mxGeometry width="50" height="50" relative="1" as="geometry">
            <mxPoint x="715" y="670.5" as="sourcePoint" />
            <mxPoint x="715" y="779.5" as="targetPoint" />
          </mxGeometry>
        </mxCell>
        <mxCell id="zzU0FpkwpjBy34qVgAPe-254" value="" style="endArrow=none;html=1;rounded=0;entryX=0.109;entryY=0.996;entryDx=0;entryDy=0;exitX=0.096;exitY=0.04;exitDx=0;exitDy=0;exitPerimeter=0;entryPerimeter=0;strokeColor=#4D4D4D;" edge="1" parent="1">
          <mxGeometry width="50" height="50" relative="1" as="geometry">
            <mxPoint x="770" y="670.5" as="sourcePoint" />
            <mxPoint x="770" y="779.5" as="targetPoint" />
          </mxGeometry>
        </mxCell>
        <mxCell id="zzU0FpkwpjBy34qVgAPe-255" value="" style="endArrow=none;html=1;rounded=0;entryX=0.002;entryY=0.331;entryDx=0;entryDy=0;exitX=1.001;exitY=0.331;exitDx=0;exitDy=0;exitPerimeter=0;entryPerimeter=0;strokeColor=#4D4D4D;" edge="1" parent="1" source="zzU0FpkwpjBy34qVgAPe-246" target="zzU0FpkwpjBy34qVgAPe-246">
          <mxGeometry width="50" height="50" relative="1" as="geometry">
            <mxPoint x="555" y="681" as="sourcePoint" />
            <mxPoint x="555" y="790" as="targetPoint" />
          </mxGeometry>
        </mxCell>
        <mxCell id="zzU0FpkwpjBy34qVgAPe-256" value="" style="endArrow=none;html=1;rounded=0;entryX=0.002;entryY=0.331;entryDx=0;entryDy=0;exitX=1.001;exitY=0.331;exitDx=0;exitDy=0;exitPerimeter=0;entryPerimeter=0;strokeColor=#4D4D4D;" edge="1" parent="1">
          <mxGeometry width="50" height="50" relative="1" as="geometry">
            <mxPoint x="820" y="719.8" as="sourcePoint" />
            <mxPoint x="461" y="719.8" as="targetPoint" />
          </mxGeometry>
        </mxCell>
        <mxCell id="zzU0FpkwpjBy34qVgAPe-257" value="" style="endArrow=none;html=1;rounded=0;entryX=0.002;entryY=0.331;entryDx=0;entryDy=0;exitX=1.001;exitY=0.331;exitDx=0;exitDy=0;exitPerimeter=0;entryPerimeter=0;strokeColor=#4D4D4D;" edge="1" parent="1">
          <mxGeometry width="50" height="50" relative="1" as="geometry">
            <mxPoint x="820" y="729.8" as="sourcePoint" />
            <mxPoint x="461" y="729.8" as="targetPoint" />
          </mxGeometry>
        </mxCell>
        <mxCell id="zzU0FpkwpjBy34qVgAPe-258" value="" style="endArrow=none;html=1;rounded=0;entryX=0.002;entryY=0.331;entryDx=0;entryDy=0;exitX=1.001;exitY=0.331;exitDx=0;exitDy=0;exitPerimeter=0;entryPerimeter=0;strokeColor=#4D4D4D;" edge="1" parent="1">
          <mxGeometry width="50" height="50" relative="1" as="geometry">
            <mxPoint x="819" y="740" as="sourcePoint" />
            <mxPoint x="460" y="740" as="targetPoint" />
          </mxGeometry>
        </mxCell>
        <mxCell id="zzU0FpkwpjBy34qVgAPe-259" value="" style="endArrow=none;html=1;rounded=0;entryX=0.002;entryY=0.331;entryDx=0;entryDy=0;exitX=1.001;exitY=0.331;exitDx=0;exitDy=0;exitPerimeter=0;entryPerimeter=0;strokeColor=#4D4D4D;" edge="1" parent="1">
          <mxGeometry width="50" height="50" relative="1" as="geometry">
            <mxPoint x="819" y="750" as="sourcePoint" />
            <mxPoint x="460" y="750" as="targetPoint" />
          </mxGeometry>
        </mxCell>
        <mxCell id="zzU0FpkwpjBy34qVgAPe-260" value="" style="endArrow=none;html=1;rounded=0;entryX=0.002;entryY=0.331;entryDx=0;entryDy=0;exitX=1.001;exitY=0.331;exitDx=0;exitDy=0;exitPerimeter=0;entryPerimeter=0;strokeColor=#4D4D4D;" edge="1" parent="1">
          <mxGeometry width="50" height="50" relative="1" as="geometry">
            <mxPoint x="820" y="760" as="sourcePoint" />
            <mxPoint x="461" y="760" as="targetPoint" />
          </mxGeometry>
        </mxCell>
        <mxCell id="zzU0FpkwpjBy34qVgAPe-261" value="" style="endArrow=none;html=1;rounded=0;entryX=0.002;entryY=0.331;entryDx=0;entryDy=0;exitX=1.001;exitY=0.331;exitDx=0;exitDy=0;exitPerimeter=0;entryPerimeter=0;strokeColor=#4D4D4D;" edge="1" parent="1">
          <mxGeometry width="50" height="50" relative="1" as="geometry">
            <mxPoint x="820" y="770" as="sourcePoint" />
            <mxPoint x="461" y="770" as="targetPoint" />
          </mxGeometry>
        </mxCell>
        <mxCell id="zzU0FpkwpjBy34qVgAPe-262" value="" style="whiteSpace=wrap;strokeWidth=2;fillColor=#333333;" vertex="1" parent="1">
          <mxGeometry x="39.64" y="800" width="360" height="280" as="geometry" />
        </mxCell>
        <mxCell id="zzU0FpkwpjBy34qVgAPe-265" value="" style="endArrow=none;html=1;rounded=0;entryX=0;entryY=0.5;entryDx=0;entryDy=0;" edge="1" parent="1">
          <mxGeometry width="50" height="50" relative="1" as="geometry">
            <mxPoint x="19" y="1080" as="sourcePoint" />
            <mxPoint x="19.640000000000015" y="1010" as="targetPoint" />
            <Array as="points" />
          </mxGeometry>
        </mxCell>
        <mxCell id="zzU0FpkwpjBy34qVgAPe-266" value="" style="endArrow=none;html=1;rounded=0;entryX=0;entryY=0.5;entryDx=0;entryDy=0;exitX=1;exitY=0.5;exitDx=0;exitDy=0;" edge="1" parent="1">
          <mxGeometry width="50" height="50" relative="1" as="geometry">
            <mxPoint x="19.640000000000015" y="930" as="sourcePoint" />
            <mxPoint x="19.299999999999983" y="800" as="targetPoint" />
          </mxGeometry>
        </mxCell>
        <mxCell id="zzU0FpkwpjBy34qVgAPe-267" value="" style="endArrow=none;html=1;rounded=0;entryX=0;entryY=0.5;entryDx=0;entryDy=0;" edge="1" parent="1">
          <mxGeometry width="50" height="50" relative="1" as="geometry">
            <mxPoint x="39.640000000000015" y="1100" as="sourcePoint" />
            <mxPoint x="179.64000000000004" y="1100" as="targetPoint" />
          </mxGeometry>
        </mxCell>
        <mxCell id="zzU0FpkwpjBy34qVgAPe-268" value="" style="endArrow=none;html=1;rounded=0;entryX=1;entryY=0.5;entryDx=0;entryDy=0;" edge="1" parent="1">
          <mxGeometry width="50" height="50" relative="1" as="geometry">
            <mxPoint x="279.64" y="1100" as="sourcePoint" />
            <mxPoint x="259.64" y="1100" as="targetPoint" />
            <Array as="points">
              <mxPoint x="399.64" y="1100" />
            </Array>
          </mxGeometry>
        </mxCell>
        <mxCell id="zzU0FpkwpjBy34qVgAPe-275" value="&lt;font color=&quot;#ffffff&quot;&gt;Refresh&lt;/font&gt;" style="rounded=1;whiteSpace=wrap;html=1;fillColor=#4D4D4D;" vertex="1" parent="1">
          <mxGeometry x="142.64" y="1000" width="79" height="20" as="geometry" />
        </mxCell>
        <mxCell id="zzU0FpkwpjBy34qVgAPe-277" value="&lt;font color=&quot;#ff0000&quot;&gt;maintenance_history.py&lt;/font&gt;" style="text;html=1;align=left;verticalAlign=middle;whiteSpace=wrap;rounded=0;" vertex="1" parent="1">
          <mxGeometry x="39.640000000000015" y="770" width="160" height="40" as="geometry" />
        </mxCell>
        <mxCell id="zzU0FpkwpjBy34qVgAPe-278" value="800 px" style="text;html=1;align=center;verticalAlign=middle;whiteSpace=wrap;rounded=0;rotation=0;" vertex="1" parent="1">
          <mxGeometry x="179.64000000000004" y="1080" width="80" height="40" as="geometry" />
        </mxCell>
        <mxCell id="zzU0FpkwpjBy34qVgAPe-285" value="" style="whiteSpace=wrap;strokeWidth=2;fillColor=#1A1A1A;" vertex="1" parent="1">
          <mxGeometry x="40.000000000000014" y="840" width="360" height="110" as="geometry" />
        </mxCell>
        <mxCell id="zzU0FpkwpjBy34qVgAPe-286" value="" style="endArrow=none;html=1;rounded=0;entryX=1;entryY=0.5;entryDx=0;entryDy=0;strokeColor=#4D4D4D;" edge="1" parent="1">
          <mxGeometry width="50" height="50" relative="1" as="geometry">
            <mxPoint x="60.000000000000014" y="860" as="sourcePoint" />
            <mxPoint x="40.000000000000014" y="860" as="targetPoint" />
            <Array as="points">
              <mxPoint x="401" y="860" />
            </Array>
          </mxGeometry>
        </mxCell>
        <mxCell id="zzU0FpkwpjBy34qVgAPe-287" value="" style="endArrow=none;html=1;rounded=0;entryX=0.109;entryY=0.996;entryDx=0;entryDy=0;exitX=0.11;exitY=0.975;exitDx=0;exitDy=0;exitPerimeter=0;entryPerimeter=0;strokeColor=#4D4D4D;" edge="1" parent="1">
          <mxGeometry width="50" height="50" relative="1" as="geometry">
            <mxPoint x="79.60000000000014" y="949.25" as="sourcePoint" />
            <mxPoint x="80.30000000000001" y="842" as="targetPoint" />
          </mxGeometry>
        </mxCell>
        <mxCell id="zzU0FpkwpjBy34qVgAPe-288" value="" style="endArrow=none;html=1;rounded=0;entryX=0.109;entryY=0.996;entryDx=0;entryDy=0;exitX=0.096;exitY=0.04;exitDx=0;exitDy=0;exitPerimeter=0;entryPerimeter=0;strokeColor=#4D4D4D;" edge="1" parent="1">
          <mxGeometry width="50" height="50" relative="1" as="geometry">
            <mxPoint x="-304.99999999999994" y="1341" as="sourcePoint" />
            <mxPoint x="-304.99999999999994" y="1450" as="targetPoint" />
          </mxGeometry>
        </mxCell>
        <mxCell id="zzU0FpkwpjBy34qVgAPe-289" value="" style="endArrow=none;html=1;rounded=0;entryX=0.109;entryY=0.996;entryDx=0;entryDy=0;exitX=0.096;exitY=0.04;exitDx=0;exitDy=0;exitPerimeter=0;entryPerimeter=0;strokeColor=#4D4D4D;" edge="1" parent="1">
          <mxGeometry width="50" height="50" relative="1" as="geometry">
            <mxPoint x="216.00000000000006" y="841" as="sourcePoint" />
            <mxPoint x="216.00000000000006" y="950" as="targetPoint" />
          </mxGeometry>
        </mxCell>
        <mxCell id="zzU0FpkwpjBy34qVgAPe-290" value="" style="endArrow=none;html=1;rounded=0;entryX=0.109;entryY=0.996;entryDx=0;entryDy=0;exitX=0.096;exitY=0.04;exitDx=0;exitDy=0;exitPerimeter=0;entryPerimeter=0;strokeColor=#4D4D4D;" edge="1" parent="1">
          <mxGeometry width="50" height="50" relative="1" as="geometry">
            <mxPoint x="296" y="840.5" as="sourcePoint" />
            <mxPoint x="296" y="949.5" as="targetPoint" />
          </mxGeometry>
        </mxCell>
        <mxCell id="zzU0FpkwpjBy34qVgAPe-291" value="" style="endArrow=none;html=1;rounded=0;entryX=0.109;entryY=0.996;entryDx=0;entryDy=0;exitX=0.096;exitY=0.04;exitDx=0;exitDy=0;exitPerimeter=0;entryPerimeter=0;strokeColor=#4D4D4D;" edge="1" parent="1">
          <mxGeometry width="50" height="50" relative="1" as="geometry">
            <mxPoint x="351" y="840.5" as="sourcePoint" />
            <mxPoint x="351" y="949.5" as="targetPoint" />
          </mxGeometry>
        </mxCell>
        <mxCell id="zzU0FpkwpjBy34qVgAPe-292" value="" style="endArrow=none;html=1;rounded=0;entryX=0.002;entryY=0.331;entryDx=0;entryDy=0;exitX=1.001;exitY=0.331;exitDx=0;exitDy=0;exitPerimeter=0;entryPerimeter=0;strokeColor=#4D4D4D;" edge="1" parent="1" source="zzU0FpkwpjBy34qVgAPe-285" target="zzU0FpkwpjBy34qVgAPe-285">
          <mxGeometry width="50" height="50" relative="1" as="geometry">
            <mxPoint x="134.64000000000004" y="1021" as="sourcePoint" />
            <mxPoint x="134.64000000000004" y="1130" as="targetPoint" />
          </mxGeometry>
        </mxCell>
        <mxCell id="zzU0FpkwpjBy34qVgAPe-293" value="" style="endArrow=none;html=1;rounded=0;entryX=0.002;entryY=0.331;entryDx=0;entryDy=0;exitX=1.001;exitY=0.331;exitDx=0;exitDy=0;exitPerimeter=0;entryPerimeter=0;strokeColor=#4D4D4D;" edge="1" parent="1">
          <mxGeometry width="50" height="50" relative="1" as="geometry">
            <mxPoint x="401" y="889.8" as="sourcePoint" />
            <mxPoint x="42.000000000000014" y="889.8" as="targetPoint" />
          </mxGeometry>
        </mxCell>
        <mxCell id="zzU0FpkwpjBy34qVgAPe-294" value="" style="endArrow=none;html=1;rounded=0;entryX=0.002;entryY=0.331;entryDx=0;entryDy=0;exitX=1.001;exitY=0.331;exitDx=0;exitDy=0;exitPerimeter=0;entryPerimeter=0;strokeColor=#4D4D4D;" edge="1" parent="1">
          <mxGeometry width="50" height="50" relative="1" as="geometry">
            <mxPoint x="401" y="899.8" as="sourcePoint" />
            <mxPoint x="42.000000000000014" y="899.8" as="targetPoint" />
          </mxGeometry>
        </mxCell>
        <mxCell id="zzU0FpkwpjBy34qVgAPe-295" value="" style="endArrow=none;html=1;rounded=0;entryX=0.002;entryY=0.331;entryDx=0;entryDy=0;exitX=1.001;exitY=0.331;exitDx=0;exitDy=0;exitPerimeter=0;entryPerimeter=0;strokeColor=#4D4D4D;" edge="1" parent="1">
          <mxGeometry width="50" height="50" relative="1" as="geometry">
            <mxPoint x="400" y="910" as="sourcePoint" />
            <mxPoint x="41.000000000000014" y="910" as="targetPoint" />
          </mxGeometry>
        </mxCell>
        <mxCell id="zzU0FpkwpjBy34qVgAPe-296" value="" style="endArrow=none;html=1;rounded=0;entryX=0.002;entryY=0.331;entryDx=0;entryDy=0;exitX=1.001;exitY=0.331;exitDx=0;exitDy=0;exitPerimeter=0;entryPerimeter=0;strokeColor=#4D4D4D;" edge="1" parent="1">
          <mxGeometry width="50" height="50" relative="1" as="geometry">
            <mxPoint x="400" y="920" as="sourcePoint" />
            <mxPoint x="41.000000000000014" y="920" as="targetPoint" />
          </mxGeometry>
        </mxCell>
        <mxCell id="zzU0FpkwpjBy34qVgAPe-297" value="" style="endArrow=none;html=1;rounded=0;entryX=0.002;entryY=0.331;entryDx=0;entryDy=0;exitX=1.001;exitY=0.331;exitDx=0;exitDy=0;exitPerimeter=0;entryPerimeter=0;strokeColor=#4D4D4D;" edge="1" parent="1">
          <mxGeometry width="50" height="50" relative="1" as="geometry">
            <mxPoint x="401" y="930" as="sourcePoint" />
            <mxPoint x="42.000000000000014" y="930" as="targetPoint" />
          </mxGeometry>
        </mxCell>
        <mxCell id="zzU0FpkwpjBy34qVgAPe-298" value="" style="endArrow=none;html=1;rounded=0;entryX=0.002;entryY=0.331;entryDx=0;entryDy=0;exitX=1.001;exitY=0.331;exitDx=0;exitDy=0;exitPerimeter=0;entryPerimeter=0;strokeColor=#4D4D4D;" edge="1" parent="1">
          <mxGeometry width="50" height="50" relative="1" as="geometry">
            <mxPoint x="401" y="940" as="sourcePoint" />
            <mxPoint x="42.000000000000014" y="940" as="targetPoint" />
          </mxGeometry>
        </mxCell>
        <mxCell id="zzU0FpkwpjBy34qVgAPe-299" value="400 px" style="text;html=1;align=center;verticalAlign=middle;whiteSpace=wrap;rounded=0;rotation=-90;" vertex="1" parent="1">
          <mxGeometry x="-20.360000000000014" y="940" width="80" height="40" as="geometry" />
        </mxCell>
        <mxCell id="zzU0FpkwpjBy34qVgAPe-301" value="&lt;font style=&quot;font-size: 15px;&quot;&gt;Manage Maintenance Tasks&lt;/font&gt;" style="text;html=1;align=center;verticalAlign=middle;whiteSpace=wrap;rounded=0;fontColor=#FFFFFF;" vertex="1" parent="1">
          <mxGeometry x="460" y="460" width="360" height="30" as="geometry" />
        </mxCell>
        <mxCell id="zzU0FpkwpjBy34qVgAPe-302" value="&lt;font style=&quot;font-size: 15px;&quot;&gt;Maintenance History&lt;/font&gt;" style="text;html=1;align=center;verticalAlign=middle;whiteSpace=wrap;rounded=0;fontColor=#FFFFFF;" vertex="1" parent="1">
          <mxGeometry x="39.639999999999986" y="800" width="360" height="30" as="geometry" />
        </mxCell>
        <mxCell id="zzU0FpkwpjBy34qVgAPe-303" value="&lt;div style=&quot;&quot;&gt;&lt;font style=&quot;font-size: 10px;&quot;&gt;Task ID&amp;nbsp; &amp;nbsp;Machine&amp;nbsp; &amp;nbsp;Maintenance Type&amp;nbsp; &amp;nbsp;Date Scheduled&amp;nbsp; &amp;nbsp;Technician&amp;nbsp; &amp;nbsp;Status&lt;/font&gt;&lt;/div&gt;" style="text;html=1;align=left;verticalAlign=middle;whiteSpace=wrap;rounded=0;fontColor=#FFFFFF;" vertex="1" parent="1">
          <mxGeometry x="40" y="840" width="410" height="20" as="geometry" />
        </mxCell>
        <mxCell id="zzU0FpkwpjBy34qVgAPe-305" value="" style="endArrow=none;html=1;rounded=0;entryX=0.109;entryY=0.996;entryDx=0;entryDy=0;exitX=0.096;exitY=0.04;exitDx=0;exitDy=0;exitPerimeter=0;entryPerimeter=0;strokeColor=#4D4D4D;" edge="1" parent="1">
          <mxGeometry width="50" height="50" relative="1" as="geometry">
            <mxPoint x="126.79" y="840" as="sourcePoint" />
            <mxPoint x="127.14999999999999" y="949" as="targetPoint" />
          </mxGeometry>
        </mxCell>
        <mxCell id="zzU0FpkwpjBy34qVgAPe-308" value="" style="endArrow=classic;html=1;rounded=0;" edge="1" parent="1">
          <mxGeometry width="50" height="50" relative="1" as="geometry">
            <mxPoint x="649" y="470" as="sourcePoint" />
            <mxPoint x="649" y="440" as="targetPoint" />
          </mxGeometry>
        </mxCell>
        <mxCell id="zzU0FpkwpjBy34qVgAPe-309" value="Font = Arial&lt;div&gt;Fontsize = 18&lt;/div&gt;" style="text;html=1;align=left;verticalAlign=middle;whiteSpace=wrap;rounded=0;" vertex="1" parent="1">
          <mxGeometry x="610" y="400" width="80" height="40" as="geometry" />
        </mxCell>
        <mxCell id="zzU0FpkwpjBy34qVgAPe-310" value="" style="endArrow=classic;html=1;rounded=0;" edge="1" parent="1">
          <mxGeometry width="50" height="50" relative="1" as="geometry">
            <mxPoint x="220" y="810" as="sourcePoint" />
            <mxPoint x="220" y="780" as="targetPoint" />
          </mxGeometry>
        </mxCell>
        <mxCell id="zzU0FpkwpjBy34qVgAPe-311" value="Font = Arial&lt;div&gt;Fontsize = 18&lt;/div&gt;" style="text;html=1;align=left;verticalAlign=middle;whiteSpace=wrap;rounded=0;" vertex="1" parent="1">
          <mxGeometry x="180" y="740" width="80" height="40" as="geometry" />
        </mxCell>
        <mxCell id="zzU0FpkwpjBy34qVgAPe-312" value="&lt;font color=&quot;#ffffff&quot;&gt;Close&lt;/font&gt;" style="rounded=1;whiteSpace=wrap;html=1;fillColor=#4D4D4D;" vertex="1" parent="1">
          <mxGeometry x="226.64" y="1000" width="70" height="20" as="geometry" />
        </mxCell>
        <mxCell id="zzU0FpkwpjBy34qVgAPe-313" value="" style="whiteSpace=wrap;strokeWidth=2;fillColor=#333333;" vertex="1" parent="1">
          <mxGeometry x="459.64" y="870" width="360" height="320" as="geometry" />
        </mxCell>
        <mxCell id="zzU0FpkwpjBy34qVgAPe-314" value="" style="rounded=1;whiteSpace=wrap;html=1;fillColor=#1A1A1A;" vertex="1" parent="1">
          <mxGeometry x="589.64" y="900" width="180" height="20" as="geometry" />
        </mxCell>
        <mxCell id="zzU0FpkwpjBy34qVgAPe-315" value="&lt;div style=&quot;&quot;&gt;Filters by Status:&lt;/div&gt;" style="text;html=1;align=left;verticalAlign=middle;whiteSpace=wrap;rounded=0;fontColor=#FFFFFF;" vertex="1" parent="1">
          <mxGeometry x="479.64" y="900" width="100.36" height="20" as="geometry" />
        </mxCell>
        <mxCell id="zzU0FpkwpjBy34qVgAPe-316" value="" style="endArrow=none;html=1;rounded=0;entryX=0;entryY=0.5;entryDx=0;entryDy=0;" edge="1" parent="1" target="zzU0FpkwpjBy34qVgAPe-329">
          <mxGeometry width="50" height="50" relative="1" as="geometry">
            <mxPoint x="439.21999999999997" y="1190" as="sourcePoint" />
            <mxPoint x="439.21999999999997" y="1110" as="targetPoint" />
            <Array as="points" />
          </mxGeometry>
        </mxCell>
        <mxCell id="zzU0FpkwpjBy34qVgAPe-317" value="" style="endArrow=none;html=1;rounded=0;entryX=0;entryY=0.5;entryDx=0;entryDy=0;exitX=1;exitY=0.5;exitDx=0;exitDy=0;" edge="1" parent="1" source="zzU0FpkwpjBy34qVgAPe-329">
          <mxGeometry width="50" height="50" relative="1" as="geometry">
            <mxPoint x="439.29999999999995" y="950" as="sourcePoint" />
            <mxPoint x="439.29999999999995" y="870" as="targetPoint" />
          </mxGeometry>
        </mxCell>
        <mxCell id="zzU0FpkwpjBy34qVgAPe-318" value="" style="endArrow=none;html=1;rounded=0;entryX=0;entryY=0.5;entryDx=0;entryDy=0;" edge="1" parent="1">
          <mxGeometry width="50" height="50" relative="1" as="geometry">
            <mxPoint x="459.64" y="1210" as="sourcePoint" />
            <mxPoint x="599.64" y="1210" as="targetPoint" />
          </mxGeometry>
        </mxCell>
        <mxCell id="zzU0FpkwpjBy34qVgAPe-319" value="" style="endArrow=none;html=1;rounded=0;entryX=1;entryY=0.5;entryDx=0;entryDy=0;" edge="1" parent="1">
          <mxGeometry width="50" height="50" relative="1" as="geometry">
            <mxPoint x="699.64" y="1210" as="sourcePoint" />
            <mxPoint x="679.64" y="1210" as="targetPoint" />
            <Array as="points">
              <mxPoint x="819.64" y="1210" />
            </Array>
          </mxGeometry>
        </mxCell>
        <mxCell id="zzU0FpkwpjBy34qVgAPe-326" value="&lt;font color=&quot;#ffffff&quot;&gt;Generate Report&lt;/font&gt;" style="rounded=1;whiteSpace=wrap;html=1;fillColor=#4D4D4D;" vertex="1" parent="1">
          <mxGeometry x="589.64" y="930" width="100.36" height="20" as="geometry" />
        </mxCell>
        <mxCell id="zzU0FpkwpjBy34qVgAPe-327" value="&lt;font color=&quot;#ffffff&quot;&gt;Export to CSV&lt;/font&gt;" style="rounded=1;whiteSpace=wrap;html=1;fillColor=#4D4D4D;" vertex="1" parent="1">
          <mxGeometry x="699" y="930" width="81.36" height="20" as="geometry" />
        </mxCell>
        <mxCell id="zzU0FpkwpjBy34qVgAPe-328" value="&lt;font color=&quot;#ff0000&quot;&gt;report_generation.py&lt;/font&gt;" style="text;html=1;align=left;verticalAlign=middle;whiteSpace=wrap;rounded=0;" vertex="1" parent="1">
          <mxGeometry x="459.64" y="840" width="160" height="40" as="geometry" />
        </mxCell>
        <mxCell id="zzU0FpkwpjBy34qVgAPe-329" value="500 px" style="text;html=1;align=center;verticalAlign=middle;whiteSpace=wrap;rounded=0;rotation=-90;" vertex="1" parent="1">
          <mxGeometry x="399.64" y="1020" width="80" height="40" as="geometry" />
        </mxCell>
        <mxCell id="zzU0FpkwpjBy34qVgAPe-330" value="800 px" style="text;html=1;align=center;verticalAlign=middle;whiteSpace=wrap;rounded=0;rotation=0;" vertex="1" parent="1">
          <mxGeometry x="599.64" y="1190" width="80" height="40" as="geometry" />
        </mxCell>
        <mxCell id="zzU0FpkwpjBy34qVgAPe-332" value="" style="triangle;whiteSpace=wrap;html=1;rotation=90;fillColor=#2170a1;" vertex="1" parent="1">
          <mxGeometry x="749.64" y="900" width="10" height="20" as="geometry" />
        </mxCell>
        <mxCell id="zzU0FpkwpjBy34qVgAPe-337" value="" style="whiteSpace=wrap;strokeWidth=2;fillColor=#1A1A1A;" vertex="1" parent="1">
          <mxGeometry x="459.64" y="1080" width="360" height="110" as="geometry" />
        </mxCell>
        <mxCell id="zzU0FpkwpjBy34qVgAPe-338" value="" style="endArrow=none;html=1;rounded=0;entryX=1;entryY=0.5;entryDx=0;entryDy=0;strokeColor=#4D4D4D;" edge="1" parent="1">
          <mxGeometry width="50" height="50" relative="1" as="geometry">
            <mxPoint x="478.64" y="1100" as="sourcePoint" />
            <mxPoint x="458.64" y="1100" as="targetPoint" />
            <Array as="points">
              <mxPoint x="819.64" y="1100" />
            </Array>
          </mxGeometry>
        </mxCell>
        <mxCell id="zzU0FpkwpjBy34qVgAPe-339" value="" style="endArrow=none;html=1;rounded=0;entryX=0.109;entryY=0.996;entryDx=0;entryDy=0;exitX=0.096;exitY=0.04;exitDx=0;exitDy=0;exitPerimeter=0;entryPerimeter=0;strokeColor=#4D4D4D;" edge="1" parent="1" target="zzU0FpkwpjBy34qVgAPe-337">
          <mxGeometry width="50" height="50" relative="1" as="geometry">
            <mxPoint x="498.64000000000004" y="1081" as="sourcePoint" />
            <mxPoint x="609.64" y="1220" as="targetPoint" />
          </mxGeometry>
        </mxCell>
        <mxCell id="zzU0FpkwpjBy34qVgAPe-340" value="" style="endArrow=none;html=1;rounded=0;entryX=0.109;entryY=0.996;entryDx=0;entryDy=0;exitX=0.096;exitY=0.04;exitDx=0;exitDy=0;exitPerimeter=0;entryPerimeter=0;strokeColor=#4D4D4D;" edge="1" parent="1">
          <mxGeometry width="50" height="50" relative="1" as="geometry">
            <mxPoint x="544.64" y="1081" as="sourcePoint" />
            <mxPoint x="544.64" y="1190" as="targetPoint" />
          </mxGeometry>
        </mxCell>
        <mxCell id="zzU0FpkwpjBy34qVgAPe-341" value="" style="endArrow=none;html=1;rounded=0;entryX=0.109;entryY=0.996;entryDx=0;entryDy=0;exitX=0.096;exitY=0.04;exitDx=0;exitDy=0;exitPerimeter=0;entryPerimeter=0;strokeColor=#4D4D4D;" edge="1" parent="1">
          <mxGeometry width="50" height="50" relative="1" as="geometry">
            <mxPoint x="634.64" y="1081" as="sourcePoint" />
            <mxPoint x="634.64" y="1190" as="targetPoint" />
          </mxGeometry>
        </mxCell>
        <mxCell id="zzU0FpkwpjBy34qVgAPe-342" value="" style="endArrow=none;html=1;rounded=0;entryX=0.109;entryY=0.996;entryDx=0;entryDy=0;exitX=0.096;exitY=0.04;exitDx=0;exitDy=0;exitPerimeter=0;entryPerimeter=0;strokeColor=#4D4D4D;" edge="1" parent="1">
          <mxGeometry width="50" height="50" relative="1" as="geometry">
            <mxPoint x="714.64" y="1080.5" as="sourcePoint" />
            <mxPoint x="714.64" y="1189.5" as="targetPoint" />
          </mxGeometry>
        </mxCell>
        <mxCell id="zzU0FpkwpjBy34qVgAPe-343" value="" style="endArrow=none;html=1;rounded=0;entryX=0.109;entryY=0.996;entryDx=0;entryDy=0;exitX=0.096;exitY=0.04;exitDx=0;exitDy=0;exitPerimeter=0;entryPerimeter=0;strokeColor=#4D4D4D;" edge="1" parent="1">
          <mxGeometry width="50" height="50" relative="1" as="geometry">
            <mxPoint x="769.64" y="1080.5" as="sourcePoint" />
            <mxPoint x="769.64" y="1189.5" as="targetPoint" />
          </mxGeometry>
        </mxCell>
        <mxCell id="zzU0FpkwpjBy34qVgAPe-344" value="" style="endArrow=none;html=1;rounded=0;entryX=0.002;entryY=0.331;entryDx=0;entryDy=0;exitX=1.001;exitY=0.331;exitDx=0;exitDy=0;exitPerimeter=0;entryPerimeter=0;strokeColor=#4D4D4D;" edge="1" parent="1" source="zzU0FpkwpjBy34qVgAPe-337" target="zzU0FpkwpjBy34qVgAPe-337">
          <mxGeometry width="50" height="50" relative="1" as="geometry">
            <mxPoint x="554.64" y="1091" as="sourcePoint" />
            <mxPoint x="554.64" y="1200" as="targetPoint" />
          </mxGeometry>
        </mxCell>
        <mxCell id="zzU0FpkwpjBy34qVgAPe-345" value="" style="endArrow=none;html=1;rounded=0;entryX=0.002;entryY=0.331;entryDx=0;entryDy=0;exitX=1.001;exitY=0.331;exitDx=0;exitDy=0;exitPerimeter=0;entryPerimeter=0;strokeColor=#4D4D4D;" edge="1" parent="1">
          <mxGeometry width="50" height="50" relative="1" as="geometry">
            <mxPoint x="819.64" y="1129.8" as="sourcePoint" />
            <mxPoint x="460.64" y="1129.8" as="targetPoint" />
          </mxGeometry>
        </mxCell>
        <mxCell id="zzU0FpkwpjBy34qVgAPe-346" value="" style="endArrow=none;html=1;rounded=0;entryX=0.002;entryY=0.331;entryDx=0;entryDy=0;exitX=1.001;exitY=0.331;exitDx=0;exitDy=0;exitPerimeter=0;entryPerimeter=0;strokeColor=#4D4D4D;" edge="1" parent="1">
          <mxGeometry width="50" height="50" relative="1" as="geometry">
            <mxPoint x="819.64" y="1139.8" as="sourcePoint" />
            <mxPoint x="460.64" y="1139.8" as="targetPoint" />
          </mxGeometry>
        </mxCell>
        <mxCell id="zzU0FpkwpjBy34qVgAPe-347" value="" style="endArrow=none;html=1;rounded=0;entryX=0.002;entryY=0.331;entryDx=0;entryDy=0;exitX=1.001;exitY=0.331;exitDx=0;exitDy=0;exitPerimeter=0;entryPerimeter=0;strokeColor=#4D4D4D;" edge="1" parent="1">
          <mxGeometry width="50" height="50" relative="1" as="geometry">
            <mxPoint x="818.64" y="1150" as="sourcePoint" />
            <mxPoint x="459.64" y="1150" as="targetPoint" />
          </mxGeometry>
        </mxCell>
        <mxCell id="zzU0FpkwpjBy34qVgAPe-348" value="" style="endArrow=none;html=1;rounded=0;entryX=0.002;entryY=0.331;entryDx=0;entryDy=0;exitX=1.001;exitY=0.331;exitDx=0;exitDy=0;exitPerimeter=0;entryPerimeter=0;strokeColor=#4D4D4D;" edge="1" parent="1">
          <mxGeometry width="50" height="50" relative="1" as="geometry">
            <mxPoint x="818.64" y="1160" as="sourcePoint" />
            <mxPoint x="459.64" y="1160" as="targetPoint" />
          </mxGeometry>
        </mxCell>
        <mxCell id="zzU0FpkwpjBy34qVgAPe-349" value="" style="endArrow=none;html=1;rounded=0;entryX=0.002;entryY=0.331;entryDx=0;entryDy=0;exitX=1.001;exitY=0.331;exitDx=0;exitDy=0;exitPerimeter=0;entryPerimeter=0;strokeColor=#4D4D4D;" edge="1" parent="1">
          <mxGeometry width="50" height="50" relative="1" as="geometry">
            <mxPoint x="819.64" y="1170" as="sourcePoint" />
            <mxPoint x="460.64" y="1170" as="targetPoint" />
          </mxGeometry>
        </mxCell>
        <mxCell id="zzU0FpkwpjBy34qVgAPe-350" value="" style="endArrow=none;html=1;rounded=0;entryX=0.002;entryY=0.331;entryDx=0;entryDy=0;exitX=1.001;exitY=0.331;exitDx=0;exitDy=0;exitPerimeter=0;entryPerimeter=0;strokeColor=#4D4D4D;" edge="1" parent="1">
          <mxGeometry width="50" height="50" relative="1" as="geometry">
            <mxPoint x="819.64" y="1180" as="sourcePoint" />
            <mxPoint x="460.64" y="1180" as="targetPoint" />
          </mxGeometry>
        </mxCell>
        <mxCell id="zzU0FpkwpjBy34qVgAPe-351" value="&lt;font style=&quot;font-size: 15px;&quot;&gt;Generate Maintanence Reports&lt;/font&gt;" style="text;html=1;align=center;verticalAlign=middle;whiteSpace=wrap;rounded=0;fontColor=#FFFFFF;" vertex="1" parent="1">
          <mxGeometry x="459.64" y="870" width="360" height="30" as="geometry" />
        </mxCell>
        <mxCell id="zzU0FpkwpjBy34qVgAPe-352" value="" style="endArrow=classic;html=1;rounded=0;" edge="1" parent="1">
          <mxGeometry width="50" height="50" relative="1" as="geometry">
            <mxPoint x="648.64" y="880" as="sourcePoint" />
            <mxPoint x="648.64" y="850" as="targetPoint" />
          </mxGeometry>
        </mxCell>
        <mxCell id="zzU0FpkwpjBy34qVgAPe-353" value="Font = Arial&lt;div&gt;Fontsize = 18&lt;/div&gt;" style="text;html=1;align=left;verticalAlign=middle;whiteSpace=wrap;rounded=0;" vertex="1" parent="1">
          <mxGeometry x="609.64" y="810" width="80" height="40" as="geometry" />
        </mxCell>
        <mxCell id="zzU0FpkwpjBy34qVgAPe-354" value="&lt;div style=&quot;&quot;&gt;All&lt;/div&gt;" style="text;html=1;align=left;verticalAlign=middle;whiteSpace=wrap;rounded=0;fontColor=#FFFFFF;" vertex="1" parent="1">
          <mxGeometry x="590" y="900" width="100.36" height="20" as="geometry" />
        </mxCell>
        <mxCell id="zzU0FpkwpjBy34qVgAPe-355" value="&lt;div style=&quot;&quot;&gt;&lt;font style=&quot;font-size: 10px;&quot;&gt;Task ID&amp;nbsp; &amp;nbsp;Machine&amp;nbsp; &amp;nbsp;Maintenance Type&amp;nbsp; &amp;nbsp;Date Scheduled&amp;nbsp; &amp;nbsp;Technician&amp;nbsp; &amp;nbsp;Status&lt;/font&gt;&lt;/div&gt;" style="text;html=1;align=left;verticalAlign=middle;whiteSpace=wrap;rounded=0;fontColor=#FFFFFF;" vertex="1" parent="1">
          <mxGeometry x="460" y="1080" width="410" height="20" as="geometry" />
        </mxCell>
        <mxCell id="zzU0FpkwpjBy34qVgAPe-356" value="&lt;font style=&quot;font-size: 15px;&quot;&gt;Manage Machines&lt;/font&gt;" style="text;html=1;align=center;verticalAlign=middle;whiteSpace=wrap;rounded=0;fontColor=#FFFFFF;" vertex="1" parent="1">
          <mxGeometry x="39.639999999999986" y="460" width="360" height="30" as="geometry" />
        </mxCell>
        <mxCell id="zzU0FpkwpjBy34qVgAPe-357" value="" style="endArrow=classic;html=1;rounded=0;" edge="1" parent="1">
          <mxGeometry width="50" height="50" relative="1" as="geometry">
            <mxPoint x="219" y="470" as="sourcePoint" />
            <mxPoint x="219" y="440" as="targetPoint" />
          </mxGeometry>
        </mxCell>
        <mxCell id="zzU0FpkwpjBy34qVgAPe-358" value="Font = Arial&lt;div&gt;Fontsize = 18&lt;/div&gt;" style="text;html=1;align=left;verticalAlign=middle;whiteSpace=wrap;rounded=0;" vertex="1" parent="1">
          <mxGeometry x="180" y="400" width="80" height="40" as="geometry" />
        </mxCell>
        <mxCell id="zzU0FpkwpjBy34qVgAPe-359" value="&lt;font color=&quot;#ffffff&quot;&gt;Generate Reports&lt;/font&gt;" style="rounded=1;whiteSpace=wrap;html=1;fillColor=#4D4D4D;" vertex="1" parent="1">
          <mxGeometry x="59.64" y="240" width="140" height="20" as="geometry" />
        </mxCell>
        <mxCell id="zzU0FpkwpjBy34qVgAPe-360" value="&lt;font color=&quot;#ffffff&quot;&gt;Dashboard&lt;/font&gt;" style="rounded=1;whiteSpace=wrap;html=1;fillColor=#4D4D4D;" vertex="1" parent="1">
          <mxGeometry x="210" y="240" width="140" height="20" as="geometry" />
        </mxCell>
        <mxCell id="zzU0FpkwpjBy34qVgAPe-361" value="&lt;font color=&quot;#ffffff&quot;&gt;English&lt;/font&gt;" style="rounded=1;whiteSpace=wrap;html=1;fillColor=#4D4D4D;" vertex="1" parent="1">
          <mxGeometry x="380" y="350" width="130" height="20" as="geometry" />
        </mxCell>
        <mxCell id="zzU0FpkwpjBy34qVgAPe-362" value="" style="triangle;whiteSpace=wrap;html=1;rotation=90;fillColor=#2170a1;" vertex="1" parent="1">
          <mxGeometry x="490" y="350" width="10" height="20" as="geometry" />
        </mxCell>
        <mxCell id="zzU0FpkwpjBy34qVgAPe-363" value="&lt;font color=&quot;#ffffff&quot;&gt;Select Language:&lt;/font&gt;" style="text;html=1;align=left;verticalAlign=middle;whiteSpace=wrap;rounded=0;" vertex="1" parent="1">
          <mxGeometry x="280" y="340" width="120" height="39.88" as="geometry" />
        </mxCell>
        <mxCell id="zzU0FpkwpjBy34qVgAPe-364" value="" style="whiteSpace=wrap;strokeWidth=2;fillColor=#333333;" vertex="1" parent="1">
          <mxGeometry x="39.64" y="1240" width="480" height="240" as="geometry" />
        </mxCell>
        <mxCell id="zzU0FpkwpjBy34qVgAPe-366" value="" style="rounded=1;whiteSpace=wrap;html=1;fillColor=#4D4D4D;" vertex="1" parent="1">
          <mxGeometry x="59.64" y="1290" width="440.36" height="170" as="geometry" />
        </mxCell>
        <mxCell id="zzU0FpkwpjBy34qVgAPe-369" value="" style="endArrow=classic;html=1;rounded=0;" edge="1" parent="1">
          <mxGeometry width="50" height="50" relative="1" as="geometry">
            <mxPoint x="279.6400000000001" y="1250" as="sourcePoint" />
            <mxPoint x="279.64" y="1220" as="targetPoint" />
          </mxGeometry>
        </mxCell>
        <mxCell id="zzU0FpkwpjBy34qVgAPe-370" value="Font = Arial&lt;div&gt;Fontsize = 24&lt;/div&gt;" style="text;html=1;align=left;verticalAlign=middle;whiteSpace=wrap;rounded=0;" vertex="1" parent="1">
          <mxGeometry x="239.64" y="1180" width="80" height="40" as="geometry" />
        </mxCell>
        <mxCell id="zzU0FpkwpjBy34qVgAPe-371" value="" style="endArrow=none;html=1;rounded=0;" edge="1" parent="1">
          <mxGeometry width="50" height="50" relative="1" as="geometry">
            <mxPoint x="39.64" y="1500" as="sourcePoint" />
            <mxPoint x="239.64" y="1500" as="targetPoint" />
          </mxGeometry>
        </mxCell>
        <mxCell id="zzU0FpkwpjBy34qVgAPe-372" value="" style="endArrow=none;html=1;rounded=0;" edge="1" parent="1">
          <mxGeometry width="50" height="50" relative="1" as="geometry">
            <mxPoint x="319.64" y="1500" as="sourcePoint" />
            <mxPoint x="519.64" y="1500" as="targetPoint" />
          </mxGeometry>
        </mxCell>
        <mxCell id="zzU0FpkwpjBy34qVgAPe-373" value="800 px" style="text;html=1;align=center;verticalAlign=middle;whiteSpace=wrap;rounded=0;" vertex="1" parent="1">
          <mxGeometry x="239.64" y="1480" width="80" height="40" as="geometry" />
        </mxCell>
        <mxCell id="zzU0FpkwpjBy34qVgAPe-374" value="" style="endArrow=none;html=1;rounded=0;entryX=0;entryY=0.5;entryDx=0;entryDy=0;" edge="1" parent="1" target="zzU0FpkwpjBy34qVgAPe-375">
          <mxGeometry width="50" height="50" relative="1" as="geometry">
            <mxPoint x="19.64" y="1480" as="sourcePoint" />
            <mxPoint x="229.64" y="1570" as="targetPoint" />
            <Array as="points" />
          </mxGeometry>
        </mxCell>
        <mxCell id="zzU0FpkwpjBy34qVgAPe-375" value="600 px" style="text;html=1;align=center;verticalAlign=middle;whiteSpace=wrap;rounded=0;rotation=-90;" vertex="1" parent="1">
          <mxGeometry x="-20.36" y="1340" width="80" height="40" as="geometry" />
        </mxCell>
        <mxCell id="zzU0FpkwpjBy34qVgAPe-376" value="" style="endArrow=none;html=1;rounded=0;entryX=0;entryY=0.5;entryDx=0;entryDy=0;" edge="1" parent="1">
          <mxGeometry width="50" height="50" relative="1" as="geometry">
            <mxPoint x="19.299999999999997" y="1320" as="sourcePoint" />
            <mxPoint x="19.299999999999997" y="1240" as="targetPoint" />
          </mxGeometry>
        </mxCell>
        <mxCell id="zzU0FpkwpjBy34qVgAPe-377" value="&lt;font color=&quot;#ff0000&quot;&gt;dashboard.py&lt;/font&gt;" style="text;html=1;align=left;verticalAlign=middle;whiteSpace=wrap;rounded=0;" vertex="1" parent="1">
          <mxGeometry x="39.64" y="1210" width="80" height="40" as="geometry" />
        </mxCell>
        <mxCell id="zzU0FpkwpjBy34qVgAPe-383" value="&lt;font style=&quot;font-size: 15px;&quot;&gt;Dashboard&lt;/font&gt;" style="text;html=1;align=center;verticalAlign=middle;whiteSpace=wrap;rounded=0;fontColor=#FFFFFF;" vertex="1" parent="1">
          <mxGeometry x="40" y="1240" width="480" height="30" as="geometry" />
        </mxCell>
        <mxCell id="zzU0FpkwpjBy34qVgAPe-384" value="" style="verticalLabelPosition=bottom;shadow=0;dashed=0;align=center;html=1;verticalAlign=top;strokeWidth=1;shape=mxgraph.mockup.graphics.barChart;strokeColor=none;strokeColor2=none;strokeColor3=#666666;fillColor2=#008cff;fillColor3=#dddddd;fillColor=none;rotation=-90;" vertex="1" parent="1">
          <mxGeometry x="79.99999999999999" y="1280" width="160" height="170" as="geometry" />
        </mxCell>
        <mxCell id="zzU0FpkwpjBy34qVgAPe-385" value="" style="html=1;verticalLabelPosition=bottom;align=center;labelBackgroundColor=#ffffff;verticalAlign=top;strokeWidth=2;strokeColor=#0080F0;shadow=0;dashed=0;shape=mxgraph.ios7.icons.pie_chart;fillColor=default;" vertex="1" parent="1">
          <mxGeometry x="310" y="1320" width="120" height="110" as="geometry" />
        </mxCell>
      </root>
    </mxGraphModel>
  </diagram>
</mxfile>
